# xmcd
#
# Track frame offsets:
#	150
#	14372
#	25399
#	42049
#	60734
#	71616
#	91316
#	107662
#	119702
#	132402
#	154057
#	169547
#
# Disc length: 2425 seconds
#
# Revision: 0
# Processed by: cddbd v1.5.2PL0 Copyright (c) Steve Scherf et al.
# Submitted via: EasyCDDAExtractor 11.5.3.1
#
DISCID=9e09770c
DTITLE=Big Joe and the Dynaflows - You Can't Keep a Big Man Down
DYEAR=1900
DGENRE=blues
TTITLE0=You Can't Keep a Big Man Down
TTITLE1=Bad Case of Love
TTITLE2=Evangeline
TTITLE3=Property Line
TTITLE4=Whatcha Gonna Do?
TTITLE5=Someday
TTITLE6=Confessin' the Blues
TTITLE7=Face the Facts
TTITLE8=Supercharger
TTITLE9=Nothin' But Trouble
TTITLE10=I'm To Blame
TTITLE11=What the Hell Were You Thinkin'?
EXTD=
EXTT0=
EXTT1=
EXTT2=
EXTT3=
EXTT4=
EXTT5=
EXTT6=
EXTT7=
EXTT8=
EXTT9=
EXTT10=
EXTT11=
PLAYORDER=
